<?xml version="1.0" encoding="UTF-8" standalone="no"?><!DOCTYPE svg PUBLIC "-//W3C//DTD SVG 1.1//EN" "http://www.w3.org/Graphics/SVG/1.1/DTD/svg11.dtd"><svg width="100%" height="100%" viewBox="0 0 96 96" version="1.1" xmlns="http://www.w3.org/2000/svg" xmlnsXlink="http://www.w3.org/1999/xlink" xml:space="preserve" style="fill-rule:evenodd;clip-rule:evenodd;stroke-linejoin:round;stroke-miterlimit:2;"><g><path d="M20.484,54l45.516,0c3.292,0 6,-2.708 6,-6c0,-3.292 -2.708,-6 -6,-6l-45.516,0l7.758,-7.758c1.118,-1.124 1.746,-2.645 1.746,-4.23c-0,-3.291 -2.709,-6 -6,-6c-1.585,0 -3.106,0.628 -4.23,1.746l-18,18c-1.125,1.124 -1.758,2.651 -1.758,4.242c0,1.591 0.633,3.118 1.758,4.242l18,18c1.125,1.132 2.658,1.769 4.254,1.769c3.291,0 5.999,-2.708 5.999,-5.999c0,-1.596 -0.637,-3.129 -1.769,-4.254l-7.758,-7.758Z" style="fill:#fff;fill-rule:nonzero;"/><path d="M90,0l-48,0c-0.001,-0 -0.002,-0 -0.003,-0c-3.29,-0 -5.997,2.707 -5.997,5.997c-0,0.001 -0,0.002 0,0.003l0,12c0,3.292 2.708,6 6,6c3.292,0 6,-2.708 6,-6l0,-6l36,0l0,72l-36,0l0,-6c0,-3.292 -2.708,-6 -6,-6c-3.292,0 -6,2.708 -6,6l0,12c-0,0.001 -0,0.002 -0,0.003c-0,3.29 2.707,5.997 5.997,5.997c0.001,0 0.002,0 0.003,0l48,0c0.001,0 0.002,0 0.003,0c3.29,0 5.997,-2.707 5.997,-5.997c0,-0.001 0,-0.002 0,-0.003l0,-84c0,-0.001 0,-0.002 0,-0.003c0,-3.29 -2.707,-5.997 -5.997,-5.997c-0.001,-0 -0.002,-0 -0.003,0Z" style="fill:#fff;fill-rule:nonzero;"/></g></svg>