<?xml version="1.0" encoding="UTF-8" standalone="no"?><!DOCTYPE svg PUBLIC "-//W3C//DTD SVG 1.1//EN" "http://www.w3.org/Graphics/SVG/1.1/DTD/svg11.dtd"><svg width="100%" height="100%" viewBox="0 0 50 50" version="1.1" xmlns="http://www.w3.org/2000/svg" xmlnsXlink="http://www.w3.org/1999/xlink" xml:space="preserve" style="fill-rule:evenodd;clip-rule:evenodd;stroke-linejoin:round;stroke-miterlimit:2;"><path d="M49.148,17.79l0,-16.227l-5.883,5.883c-4.495,-4.508 -10.7,-7.305 -17.554,-7.305c-13.707,0 -24.859,11.152 -24.859,24.859c-0,13.707 11.152,24.859 24.859,24.859c9.185,-0 17.205,-5.022 21.507,-12.451l-5.515,-3.182c-3.2,5.525 -9.162,9.259 -15.992,9.259c-10.192,-0 -18.485,-8.293 -18.485,-18.485c-0,-10.192 8.293,-18.485 18.485,-18.485c5.096,0 9.71,2.081 13.052,5.432l-5.842,5.843l16.227,-0Z" style="fill:#fff;fill-rule:nonzero;"/></svg>